<?xml version="1.0" encoding="UTF-8" standalone="no"?>
<!-- Created with Inkscape (http://www.inkscape.org/) -->

<svg
   width="135.25949"
   height="51.03108"
   viewBox="0 0 135.25949 51.03108"
   version="1.1"
   id="svg5"
   inkscape:version="1.1 (c68e22c387, 2021-05-23)"
   sodipodi:docname="Logo.svg"
   xmlns:inkscape="http://www.inkscape.org/namespaces/inkscape"
   xmlns:sodipodi="http://sodipodi.sourceforge.net/DTD/sodipodi-0.dtd"
   xmlns="http://www.w3.org/2000/svg"
   xmlns:svg="http://www.w3.org/2000/svg">
  <sodipodi:namedview
     id="namedview7"
     pagecolor="#ffffff"
     bordercolor="#666666"
     borderopacity="1.0"
     inkscape:pageshadow="2"
     inkscape:pageopacity="0.0"
     inkscape:pagecheckerboard="0"
     inkscape:document-units="mm"
     showgrid="false"
     inkscape:zoom="0.78587996"
     inkscape:cx="565.60801"
     inkscape:cy="327.65818"
     inkscape:window-width="1920"
     inkscape:window-height="1017"
     inkscape:window-x="1912"
     inkscape:window-y="-8"
     inkscape:window-maximized="1"
     inkscape:current-layer="layer1"
     fit-margin-top="0"
     fit-margin-left="0"
     fit-margin-right="0"
     fit-margin-bottom="0"
     showborder="true" />
  <defs
     id="defs2" />
  <g
     inkscape:label="Layer 1"
     inkscape:groupmode="layer"
     id="layer1"
     transform="translate(-2.695851,-49.902177)">
    <path
       id="path906"
       style="font-size:68.52px;line-height:0.8;font-family:'Palatino Linotype';-inkscape-font-specification:'Palatino Linotype, Normal';font-variant-caps:all-small-caps;stroke-width:1.34882"
       d="m 72.554688,156.99414 c -11.291465,0.54716 -21.064908,2.64293 -29.308594,6.29883 -9.610333,4.29936 -17.829808,11.16959 -24.658203,20.61133 -6.744094,9.44173 -10.1152348,21.07695 -10.1152348,34.90234 0,11.29635 2.6558228,21.96034 7.9667968,31.99219 5.310974,9.94754 13.19314,17.82969 23.646485,23.64648 10.537647,5.73246 22.508221,8.59766 35.912109,8.59766 7.924311,0 16.101132,-1.05264 24.531253,-3.16016 8.43011,-2.10754 15.34301,-5.48064 20.73828,-10.11719 l 2.9082,-8.85156 -2.9082,-2.78125 c -9.02023,10.36904 -21.91938,15.55274 -38.695314,15.55274 -11.212057,0 -20.821469,-2.57052 -28.830078,-7.71289 -7.924312,-5.22666 -13.699269,-12.35088 -17.324219,-21.3711 -3.624953,-9.02024 -5.4375,-19.17825 -5.4375,-30.47461 0,-16.69162 4.257065,-29.16817 12.771484,-37.42968 7.657249,-7.50562 17.259116,-11.63306 28.802735,-12.38868 z m 30.787112,2.30859 c -0.078,4.13416 -0.26925,8.04158 -0.58985,11.70508 1.008,0.70421 1.95503,1.46225 2.83594,2.27539 3.37205,3.03485 5.4366,6.02798 6.19531,8.97852 0.84301,2.95054 1.30632,7.79692 1.39063,14.54101 l 0.75976,0.75977 h 5.31055 l 0.63281,-0.75977 c 0.42151,-13.74109 1.39078,-24.06777 2.90821,-30.98046 l -0.50586,-1.01172 c -6.18725,-2.36241 -12.50005,-4.19625 -18.9375,-5.50782 z"
       transform="matrix(0.26458333,0,0,0.26458333,2.695851,49.902177)"
       sodipodi:nodetypes="cccsccsscccscsscccccccccccccc" />
    <path
       d="m 40.636122,123.38553 v -1.4052 l 0.267656,-0.2342 q 2.509278,-0.2342 3.04459,-0.43494 0.535313,-0.2342 0.869883,-0.86988 0.368027,-0.63568 0.434941,-3.07805 0.06691,-2.44236 0.06691,-6.62449 v -5.68769 q 0,-2.60965 -0.06691,-5.821527 -0.06691,-3.245332 -0.434941,-3.881015 -0.368027,-0.635684 -0.936797,-0.836426 -0.535312,-0.234199 -2.977676,-0.434941 l -0.267656,-0.267657 v -1.405195 l 0.267656,-0.234199 q 3.312246,0.267656 7.193262,0.267656 4.0483,0 7.226718,-0.267656 l 0.267656,0.234199 v 1.405195 l -0.267656,0.267657 q -2.509277,0.234199 -3.078046,0.468398 -0.535313,0.200742 -0.869883,0.836426 -0.301114,0.635683 -0.401485,3.078047 -0.06691,2.442358 -0.06691,6.591038 v 5.68769 q 0,5.48695 0.100371,10.37168 3.61336,0.0335 3.981387,0.0335 2.542734,0 5.654238,-0.13383 3.111504,-0.13383 3.546445,-0.43494 0.434941,-0.33457 0.769512,-1.80668 l 0.936797,-3.94793 0.234199,-0.2342 h 1.405195 l 0.200742,0.20074 q -0.468398,4.0483 -0.736054,8.59846 l -0.2342,0.20074 q -12.077987,-0.20074 -12.479472,-0.20074 -7.929316,0 -13.382812,0.26765 z"
       style="font-size:68.52px;line-height:0.8;font-family:'Palatino Linotype';-inkscape-font-specification:'Palatino Linotype, Normal';font-variant-caps:all-small-caps;stroke-width:0.356874"
       id="path908" />
    <path
       d="m 106.84759,106.52319 q 0,4.21558 -1.37174,7.59474 -1.33828,3.37916 -3.91447,5.82152 -2.542736,2.40891 -5.286212,3.41262 -2.710019,0.97026 -6.390293,0.97026 -8.230429,0 -12.546386,-4.71745 -4.2825,-4.71744 -4.2825,-11.77687 0,-4.85127 2.074336,-8.631914 2.074336,-3.780644 5.988809,-5.788066 3.947929,-2.007422 9.23414,-2.007422 5.152382,0 8.799199,1.940508 3.646817,1.907051 5.654237,5.420039 2.04088,3.479535 2.04088,7.762035 z m -6.45721,1.97396 q 0,-6.69141 -2.776931,-10.739706 -2.743476,-4.048301 -8.063144,-4.048301 -4.449785,0 -7.260175,3.144961 -2.810391,3.111504 -2.810391,9.434886 0,6.49066 2.810391,11.2081 2.843847,4.68399 8.163515,4.68399 4.650527,0 7.293632,-3.71373 2.643103,-3.74719 2.643103,-9.9702 z"
       style="font-size:68.52px;line-height:0.8;font-family:'Palatino Linotype';-inkscape-font-specification:'Palatino Linotype, Normal';font-variant-caps:all-small-caps;stroke-width:0.356874"
       id="path910" />
    <path
       d="m 111.53157,93.809514 v -1.405195 l 0.26766,-0.234199 q 3.31224,0.267656 7.19326,0.267656 4.0483,0 7.22672,-0.267656 l 0.26765,0.234199 v 1.405195 l -0.26765,0.267657 q -2.50928,0.234199 -3.07805,0.468398 -0.53531,0.200742 -0.86988,0.836426 -0.30112,0.635683 -0.40149,3.078047 -0.0669,2.442358 -0.0669,6.591038 v 5.92189 q 0,3.94793 0.7026,5.88844 0.70259,1.90705 2.60964,3.01113 1.90706,1.10408 5.25276,1.10408 2.8773,0 4.61707,-0.7026 1.73976,-0.73605 2.6431,-2.00742 0.9368,-1.30482 1.33828,-3.5799 0.43495,-2.30853 0.43495,-6.28992 l -0.0669,-7.96277 q 0,-4.048304 -0.16728,-4.717445 -0.13383,-0.669141 -0.66914,-1.037168 -0.50186,-0.368027 -3.57991,-0.602226 l -0.2342,-0.267657 v -1.405195 l 0.2342,-0.234199 q 2.97768,0.267656 5.72116,0.267656 2.84384,0 5.88843,-0.267656 l 0.26766,0.234199 v 1.405195 l -0.26766,0.267657 q -2.91076,0.234199 -3.47953,0.568769 -0.56877,0.301113 -0.73605,1.003711 -0.13383,0.669141 -0.20074,4.750899 l -0.16729,11.40885 q -0.0669,4.0483 -0.86988,6.28992 -0.76951,2.20816 -2.54274,3.71373 -1.77322,1.50556 -3.94793,2.17471 -2.14125,0.70259 -5.52041,0.70259 -3.37916,0 -5.78806,-0.73605 -2.40891,-0.7026 -3.94793,-2.00742 -1.53903,-1.30483 -2.34199,-3.44608 -0.76952,-2.14125 -0.76952,-5.72115 v -7.72857 q 0,-2.60965 -0.0669,-5.821527 -0.0669,-3.245332 -0.43494,-3.881015 -0.36803,-0.635684 -0.9368,-0.836426 -0.53531,-0.234199 -2.97767,-0.434941 z"
       style="font-size:68.52px;line-height:0.8;font-family:'Palatino Linotype';-inkscape-font-specification:'Palatino Linotype, Normal';font-variant-caps:all-small-caps;stroke-width:0.356874"
       id="path912" />
    <path
       d="m 150.47555,92.404319 0.26766,-0.234199 q 6.52412,0.33457 14.62072,0.33457 8.23043,0 14.62072,-0.33457 l 0.2342,0.234199 q -0.20074,4.416328 -0.20074,7.460918 l -0.20075,0.200743 h -1.33828 l -0.20074,-0.200743 q -0.43494,-3.613359 -0.7026,-4.249043 -0.26765,-0.669141 -0.76951,-0.869883 -0.4684,-0.200742 -1.87359,-0.200742 h -6.79178 l -0.13383,8.565001 v 7.6282 q 0,2.47582 0.0669,5.78807 0.0669,3.27879 0.40148,3.91447 0.33457,0.63568 0.90334,0.86988 0.56877,0.20074 3.04459,0.43494 l 0.26766,0.2342 v 1.4052 l -0.26766,0.26765 q -3.3457,-0.26765 -7.05943,-0.26765 -3.88102,0 -7.05944,0.26765 l -0.26765,-0.26765 v -1.4052 l 0.26765,-0.2342 q 2.50928,-0.2342 3.04459,-0.43494 0.56877,-0.2342 0.90334,-0.86988 0.33457,-0.66914 0.40149,-3.24533 0.0669,-2.60965 0.0669,-6.45721 v -7.52783 q -0.10037,-4.349414 -0.16728,-8.665371 h -6.79178 q -1.43865,0 -1.94051,0.234199 -0.4684,0.200742 -0.73605,0.936797 -0.2342,0.702598 -0.66914,4.148672 l -0.20074,0.200743 h -1.30483 l -0.2342,-0.200743 q 0,-1.338281 -0.20074,-7.460918 z"
       style="font-size:68.52px;line-height:0.8;font-family:'Palatino Linotype';-inkscape-font-specification:'Palatino Linotype, Normal';font-variant-caps:all-small-caps;stroke-width:0.356874"
       id="path914" />
    <path
       d="m 184.80246,123.38553 v -1.4052 l 0.26766,-0.2342 q 2.50927,-0.2342 3.04459,-0.43494 0.53531,-0.2342 0.86988,-0.86988 0.36803,-0.63568 0.43494,-3.07805 0.0669,-2.44236 0.0669,-6.62449 v -5.68769 q 0,-2.60965 -0.0669,-5.821527 -0.0669,-3.245332 -0.43494,-3.881015 -0.36803,-0.635684 -0.9368,-0.836426 -0.53531,-0.234199 -2.97767,-0.434941 l -0.26766,-0.267657 v -1.405195 l 0.26766,-0.234199 q 3.31224,0.267656 7.19326,0.267656 4.0483,0 7.22672,-0.267656 l 0.26765,0.234199 v 1.405195 l -0.26765,0.267657 q -2.50928,0.234199 -3.07805,0.468398 -0.53531,0.200742 -0.86988,0.836426 -0.30112,0.635683 -0.40149,3.078047 -0.0669,2.442358 -0.0669,6.591038 v 5.68769 q 0,2.74348 0.0669,5.9219 0.0669,3.17841 0.40149,3.8141 0.36802,0.63568 0.93679,0.83642 0.56877,0.20074 3.01114,0.43494 l 0.26765,0.2342 v 1.4052 l -0.26765,0.26765 q -3.31225,-0.26765 -7.22672,-0.26765 -4.01485,0 -7.19326,0.26765 z"
       style="font-size:68.52px;line-height:0.8;font-family:'Palatino Linotype';-inkscape-font-specification:'Palatino Linotype, Normal';font-variant-caps:all-small-caps;stroke-width:0.356874"
       id="path916" />
    <path
       d="m 231.97689,114.58633 0.20074,0.20074 q -0.4684,4.0483 -0.73606,8.59846 l -0.2342,0.20074 q -12.07798,-0.20074 -12.47947,-0.20074 -7.92931,0 -13.38281,0.26765 l -0.26766,-0.26765 v -1.4052 l 0.26766,-0.2342 q 2.50928,-0.2342 3.04459,-0.43494 0.53531,-0.2342 0.86988,-0.86988 0.36803,-0.63568 0.43494,-3.07805 0.0669,-2.44236 0.0669,-6.62449 v -5.68769 q 0,-2.60965 -0.0669,-5.821527 -0.0669,-3.245332 -0.43494,-3.881015 -0.36802,-0.635684 -0.93679,-0.836426 -0.53532,-0.234199 -2.97768,-0.434941 l -0.26766,-0.267657 v -1.405195 l 0.26766,-0.234199 q 4.31596,0.267656 13.38281,0.267656 8.06315,0 12.01108,-0.267656 l 0.16728,0.267656 q -0.66914,3.479531 -0.66914,6.791777 v 0.903337 l -0.20074,0.16729 h -1.57248 l -0.20074,-0.16729 q -0.4684,-4.449782 -0.80297,-4.985094 -0.30112,-0.56877 -3.17842,-0.56877 l -5.42004,-0.06691 q -1.171,0 -3.41262,0.03346 -0.13383,2.810391 -0.13383,5.821524 0,5.01856 0.0335,6.05572 l 3.61336,-0.0669 q 3.71373,-0.0669 4.31596,-0.16728 0.60222,-0.13383 0.90334,-0.66915 0.33457,-0.53531 0.73605,-3.51298 l 0.20074,-0.20075 h 1.43866 l 0.16728,0.20075 q -0.0669,3.14496 -0.0669,4.18213 0,4.81781 0.10037,6.79177 l -0.20074,0.20074 h -1.47211 l -0.20074,-0.20074 q -0.2342,-2.77693 -0.56877,-3.47953 -0.33457,-0.7026 -1.03717,-0.90334 -0.7026,-0.20074 -4.18213,-0.26765 l -3.74719,-0.0669 q -0.0669,3.44608 -0.0669,5.18584 0.10037,3.84756 0.16728,7.66166 3.61336,0.0335 3.98139,0.0335 2.54273,0 5.65424,-0.13383 3.1115,-0.13383 3.54644,-0.43494 0.43494,-0.33457 0.76951,-1.80668 l 0.9368,-3.94793 0.2342,-0.2342 z"
       style="font-size:68.52px;line-height:0.8;font-family:'Palatino Linotype';-inkscape-font-specification:'Palatino Linotype, Normal';font-variant-caps:all-small-caps;stroke-width:0.356874"
       id="path918" />
    <path
       d="m 249.37454,107.42653 0.4684,-0.63569 h 0.97025 q 4.88473,0 6.72486,-1.80668 1.8736,-1.84013 1.8736,-4.61707 0,-2.710017 -1.6394,-4.315955 -1.60593,-1.605937 -4.88472,-1.605937 -2.24162,0 -4.68399,0.568769 v 15.724803 q 0,2.74348 0.0669,5.9219 0.0669,3.17841 0.40148,3.8141 0.36803,0.63568 0.9368,0.83642 0.56877,0.20074 3.01113,0.43494 l 0.26766,0.2342 v 1.4052 l -0.26766,0.26765 q -3.31225,-0.26765 -7.22672,-0.26765 -4.01484,0 -7.19326,0.26765 l -0.26766,-0.26765 v -1.4052 l 0.26766,-0.2342 q 2.50928,-0.2342 3.04459,-0.43494 0.53531,-0.2342 0.86988,-0.86988 0.36803,-0.63568 0.43494,-3.07805 0.0669,-2.44236 0.0669,-6.62449 v -5.68769 q 0,-2.60965 -0.0669,-5.821527 -0.0669,-3.245332 -0.43494,-3.881015 -0.36802,-0.635684 -0.93679,-0.836426 -0.53532,-0.234199 -2.97768,-0.434941 l -0.26766,-0.267657 v -1.405195 l 0.26766,-0.234199 q 3.14496,0.267656 7.19326,0.267656 0.86989,0 4.95164,-0.133828 5.48696,-0.133828 6.1561,-0.133828 2.67656,0 4.55015,0.635684 1.90705,0.635683 3.21188,2.341992 1.33828,1.672851 1.33828,3.947929 0,2.843845 -2.04088,5.185835 -2.04088,2.342 -6.45721,3.44608 l 9.70254,11.50922 q 1.43865,1.67285 2.07434,2.07433 0.66914,0.40149 1.9405,0.43494 l 0.26766,0.2342 v 1.4052 l -0.26766,0.26765 q -2.10779,-0.23419 -3.74718,-0.23419 -2.00742,0 -4.14867,0.23419 z"
       style="font-size:68.52px;line-height:0.8;font-family:'Palatino Linotype';-inkscape-font-specification:'Palatino Linotype, Normal';font-variant-caps:all-small-caps;stroke-width:0.356874"
       id="path920" />
    <path
       d="m 14.263594,143.4503 1.363743,-0.03 q 1.813328,-0.045 2.15801,-0.19482 0.344682,-0.16485 0.50953,-1.67846 l 0.08992,-0.0749 h 0.62942 l 0.08992,0.0749 q -0.04496,2.24793 -0.04496,2.32286 0,0.41961 0.02997,2.29289 l -0.07493,0.0899 h -0.644406 l -0.07493,-0.0899 q -0.164848,-1.52859 -0.554489,-1.67845 -0.374654,-0.14987 -2.128037,-0.17984 l -1.348757,-0.03 v 0.85421 q 0,1.22887 0.02997,2.65256 0.02997,1.42368 0.179834,1.70842 0.164848,0.28474 0.419613,0.37465 0.254765,0.0899 1.348756,0.19482 l 0.11989,0.10491 v 0.62942 l -0.11989,0.11989 q -1.483632,-0.11989 -3.237015,-0.11989 -1.798342,0 -3.222029,0.11989 l -0.1198895,-0.11989 v -0.62942 L 9.782726,150.0592 q 1.123964,-0.1049 1.363743,-0.19482 0.239778,-0.1049 0.38964,-0.38964 0.164848,-0.28473 0.194821,-1.37873 0.02997,-1.09399 0.02997,-2.96726 v -2.54765 q 0,-1.16892 -0.02997,-2.6076 -0.02997,-1.45366 -0.194821,-1.73839 -0.164848,-0.28474 -0.419613,-0.37466 -0.239779,-0.1049 -1.33377,-0.19482 l -0.1198895,-0.11989 v -0.62942 l 0.1198895,-0.1049 q 3.072167,0.11989 5.589846,0.11989 2.907319,0 5.170232,-0.11989 l 0.07493,0.11989 q -0.299723,1.49862 -0.299723,3.44682 l -0.08992,0.0749 H 19.52374 l -0.07493,-0.0749 q -0.239779,-2.03812 -0.359668,-2.21795 -0.11989,-0.19482 -0.794268,-0.23978 -0.674378,-0.06 -2.202969,-0.06 h -1.72341 q -0.05995,0.79427 -0.05995,2.68253 0,0.62942 -0.04496,2.90732 z"
       style="font-size:30.6917px;line-height:0;font-family:'Palatino Linotype';-inkscape-font-specification:'Palatino Linotype';stroke-width:0.356874"
       id="path922" />
    <path
       d="m 37.941761,143.24049 q 0,1.88826 -0.614434,3.40187 -0.599447,1.5136 -1.753383,2.60759 -1.13895,1.07901 -2.367817,1.52859 -1.21388,0.4346 -2.86236,0.4346 -3.686601,0 -5.619819,-2.11305 -1.918231,-2.11305 -1.918231,-5.27514 0,-2.17299 0.929143,-3.86643 0.929144,-1.69344 2.682527,-2.59261 1.768369,-0.89917 4.136186,-0.89917 2.307872,0 3.941366,0.8692 1.633494,0.85421 2.532665,2.42776 0.914157,1.55856 0.914157,3.47679 z m -2.892333,0.88419 q 0,-2.99724 -1.243854,-4.81057 -1.228866,-1.81333 -3.611669,-1.81333 -1.993162,0 -3.252002,1.40871 -1.258839,1.39371 -1.258839,4.2261 0,2.90732 1.258839,5.02037 1.273826,2.09807 3.656629,2.09807 2.083079,0 3.266987,-1.66347 1.183909,-1.67845 1.183909,-4.46588 z"
       style="font-size:30.6917px;line-height:0;font-family:'Palatino Linotype';-inkscape-font-specification:'Palatino Linotype';stroke-width:0.356874"
       id="path924" />
    <path
       d="m 45.479812,143.64512 0.209807,-0.28474 h 0.434599 q 2.187983,0 3.012223,-0.80925 0.839226,-0.82424 0.839226,-2.0681 0,-1.21388 -0.734323,-1.93321 -0.719337,-0.71934 -2.187983,-0.71934 -1.004074,0 -2.098065,0.25477 v 7.0435 q 0,1.22887 0.02997,2.65256 0.02997,1.42368 0.179834,1.70842 0.164848,0.28474 0.419614,0.37465 0.254765,0.0899 1.348756,0.19482 l 0.119889,0.10491 v 0.62942 l -0.119889,0.11989 q -1.483632,-0.11989 -3.237015,-0.11989 -1.798342,0 -3.222029,0.11989 l -0.11989,-0.11989 v -0.62942 l 0.11989,-0.10491 q 1.123963,-0.1049 1.363742,-0.19482 0.239779,-0.1049 0.389641,-0.38964 0.164848,-0.28473 0.19482,-1.37873 0.02997,-1.09399 0.02997,-2.96726 v -2.54765 q 0,-1.16892 -0.02997,-2.6076 -0.02997,-1.45366 -0.19482,-1.73839 -0.164848,-0.28474 -0.419613,-0.37466 -0.239779,-0.1049 -1.33377,-0.19482 l -0.11989,-0.11989 v -0.62942 l 0.11989,-0.1049 q 1.408701,0.11989 3.222029,0.11989 0.38964,0 2.217955,-0.0599 2.457733,-0.0599 2.757457,-0.0599 1.198894,0 2.038121,0.28474 0.854212,0.28474 1.438673,1.04903 0.599447,0.74931 0.599447,1.76837 0,1.27383 -0.914157,2.32286 -0.914157,1.04903 -2.892333,1.54357 l 4.345993,5.15525 q 0.644406,0.74931 0.929143,0.92914 0.299724,0.17984 0.869199,0.19482 l 0.119889,0.10491 v 0.62942 l -0.119889,0.11989 q -0.94413,-0.10491 -1.678453,-0.10491 -0.899171,0 -1.858286,0.10491 z"
       style="font-size:30.6917px;line-height:0;font-family:'Palatino Linotype';-inkscape-font-specification:'Palatino Linotype';stroke-width:0.356874"
       id="path926" />
    <path
       d="m 69.697481,136.81142 0.11989,0.1049 v 0.62942 l -0.11989,0.11989 q -1.228866,0.0749 -1.453659,0.26975 -0.224793,0.17984 -0.224793,0.47956 0,0.29973 0.389641,1.70843 l 2.03812,7.40317 h 0.194821 l 3.671614,-10.82002 h 0.914157 q 1.528591,4.40593 3.10214,8.28736 l 0.989088,2.53266 h 0.19482 q 0.82424,-2.54765 1.558563,-5.45497 0.749309,-2.92231 0.749309,-3.34192 0,-0.41961 -0.269751,-0.68936 -0.269751,-0.28474 -1.52859,-0.37466 l -0.11989,-0.11989 v -0.62942 l 0.11989,-0.1049 q 1.064018,0.0899 2.35283,0.0899 1.258839,0 2.502692,-0.0899 l 0.104904,0.1049 v 0.62942 l -0.104904,0.11989 q -0.959115,0.0899 -1.33377,0.50953 -0.374654,0.41962 -0.869198,2.11305 l -3.147098,10.68515 H 77.909909 L 74.05846,140.66287 q -0.809254,2.15801 -2.008148,5.60483 -1.198895,3.43184 -1.573549,4.70566 h -1.603522 q -0.19482,-0.74931 -1.663466,-5.87458 -1.468646,-5.14026 -1.798342,-5.97949 -0.314709,-0.85421 -0.674378,-1.10898 -0.359668,-0.26975 -1.273825,-0.34468 l -0.11989,-0.11989 v -0.62942 l 0.11989,-0.1049 q 1.723411,0.11989 3.836462,0.11989 1.558563,0 2.397789,-0.11989 z"
       style="font-size:30.6917px;line-height:0;font-family:'Palatino Linotype';-inkscape-font-specification:'Palatino Linotype';stroke-width:0.356874"
       id="path928" />
    <path
       d="m 93.675372,136.54167 h 0.989088 l 4.570785,10.5203 q 0.779285,1.79834 1.303795,2.32286 0.53951,0.52451 1.58854,0.67437 l 0.1049,0.10491 v 0.62942 l -0.1049,0.11989 q -2.247929,-0.11989 -3.416851,-0.11989 -1.004074,0 -3.446822,0.11989 l -0.08992,-0.11989 v -0.62942 l 0.104903,-0.10491 q 1.543577,-0.16484 1.76837,-0.32969 0.239779,-0.17984 0.239779,-0.4346 0,-0.22479 -0.359669,-1.16892 -0.344682,-0.94413 -0.794267,-1.78336 -1.198895,-0.03 -2.967264,-0.03 -1.378729,0 -2.78743,0.03 -0.644406,1.49862 -0.839226,2.02314 -0.19482,0.50953 -0.19482,0.79426 0,0.38964 0.449585,0.61444 0.464572,0.22479 1.573549,0.28473 l 0.119889,0.10491 v 0.62942 l -0.08992,0.11989 q -1.543576,-0.11989 -2.712498,-0.11989 -1.228867,0 -2.727486,0.11989 l -0.08992,-0.11989 v -0.62942 l 0.11989,-0.10491 q 0.749309,0 1.168922,-0.25476 0.419613,-0.26975 0.959116,-1.15394 0.539502,-0.89917 1.034046,-1.99316 z m 2.098065,8.91678 -2.502692,-5.66478 -2.517678,5.66478 q 0.974101,0.03 2.457733,0.03 1.543577,0 2.562637,-0.03 z"
       style="font-size:30.6917px;line-height:0;font-family:'Palatino Linotype';-inkscape-font-specification:'Palatino Linotype';stroke-width:0.356874"
       id="path930" />
    <path
       d="m 109.17108,143.64512 0.20981,-0.28474 h 0.4346 q 2.18798,0 3.01222,-0.80925 0.83923,-0.82424 0.83923,-2.0681 0,-1.21388 -0.73433,-1.93321 -0.71933,-0.71934 -2.18798,-0.71934 -1.00407,0 -2.09807,0.25477 v 7.0435 q 0,1.22887 0.03,2.65256 0.03,1.42368 0.17983,1.70842 0.16485,0.28474 0.41961,0.37465 0.25477,0.0899 1.34876,0.19482 l 0.11989,0.10491 v 0.62942 l -0.11989,0.11989 q -1.48363,-0.11989 -3.23701,-0.11989 -1.79835,0 -3.22203,0.11989 l -0.11989,-0.11989 v -0.62942 l 0.11989,-0.10491 q 1.12396,-0.1049 1.36374,-0.19482 0.23978,-0.1049 0.38964,-0.38964 0.16485,-0.28473 0.19482,-1.37873 0.03,-1.09399 0.03,-2.96726 v -2.54765 q 0,-1.16892 -0.03,-2.6076 -0.03,-1.45366 -0.19482,-1.73839 -0.16485,-0.28474 -0.41961,-0.37466 -0.23978,-0.1049 -1.33377,-0.19482 l -0.11989,-0.11989 v -0.62942 l 0.11989,-0.1049 q 1.4087,0.11989 3.22203,0.11989 0.38964,0 2.21795,-0.0599 2.45773,-0.0599 2.75746,-0.0599 1.19889,0 2.03812,0.28474 0.85421,0.28474 1.43867,1.04903 0.59945,0.74931 0.59945,1.76837 0,1.27383 -0.91416,2.32286 -0.91415,1.04903 -2.89233,1.54357 l 4.34599,5.15525 q 0.64441,0.74931 0.92915,0.92914 0.29972,0.17984 0.86919,0.19482 l 0.11989,0.10491 v 0.62942 l -0.11989,0.11989 q -0.94413,-0.10491 -1.67845,-0.10491 -0.89917,0 -1.85829,0.10491 z"
       style="font-size:30.6917px;line-height:0;font-family:'Palatino Linotype';-inkscape-font-specification:'Palatino Linotype';stroke-width:0.356874"
       id="path932" />
    <path
       d="m 120.17094,150.79353 v -0.62942 l 0.11989,-0.10491 q 1.12397,-0.1049 1.36374,-0.19482 0.23978,-0.1049 0.38965,-0.38964 0.16484,-0.28473 0.19482,-1.37873 0.03,-1.09399 0.03,-2.96726 v -2.54765 q 0,-1.16892 -0.03,-2.6076 -0.03,-1.45366 -0.19482,-1.73839 -0.16485,-0.28474 -0.41962,-0.37466 -0.23978,-0.1049 -1.33377,-0.19482 l -0.11989,-0.11989 v -0.62942 l 0.11989,-0.1049 q 2.03812,0.11989 3.01222,0.11989 l 5.14027,-0.0899 q 1.28881,0 2.24792,0.23978 0.95912,0.22479 1.8433,0.80926 0.88419,0.56947 1.51361,1.42368 0.6444,0.85421 0.89917,1.81333 0.26975,0.94413 0.26975,1.96319 0,1.78336 -0.68937,3.31195 -0.68936,1.52859 -1.8433,2.57762 -1.13895,1.04903 -2.60759,1.45366 -1.45366,0.40463 -3.37189,0.40463 l -3.35691,-0.045 q -1.52859,0.0599 -3.05718,0.11989 z m 4.64572,-0.98909 q 0.67438,0.0749 1.70842,0.0749 1.91824,0 3.1471,-0.64441 1.24386,-0.65939 1.90325,-2.20296 0.67438,-1.54358 0.67438,-3.56672 0,-2.5926 -1.31879,-4.15117 -1.31878,-1.57355 -3.89641,-1.57355 -1.03404,0 -2.21795,0.0899 z"
       style="font-size:30.6917px;line-height:0;font-family:'Palatino Linotype';-inkscape-font-specification:'Palatino Linotype';stroke-width:0.356874"
       id="path934" />
    <path
       d="m 145.67742,151.01832 q -0.22479,-0.71934 -0.92915,-2.36782 l 0.045,-0.19482 0.40463,-0.22479 0.19482,0.06 q 0.77928,1.36374 0.94413,1.52859 0.17983,0.16484 0.82424,0.38964 0.64441,0.23978 1.36374,0.23978 0.88419,0 1.55857,-0.37466 0.68936,-0.35967 1.03404,-1.09399 0.34468,-0.73432 0.34468,-1.67845 0,-1.51361 -0.82424,-2.20297 -0.80925,-0.70435 -1.97817,-0.70435 -0.74931,0 -1.21388,0.25476 -0.46457,0.23978 -1.03405,0.83923 l -0.52452,-0.14986 q 0.0599,-1.52859 0.13488,-3.07217 v -1.57355 q 0,-0.68936 -0.045,-1.34876 -0.03,-0.40462 -0.03,-0.56947 l 0.19482,-0.13488 q 1.48363,0.10491 3.22203,0.10491 1.45366,0 3.34192,-0.10491 l 0.0899,0.17984 q -0.0749,0.46457 -0.0749,0.82424 0,0.13487 0.03,0.68936 l -0.17984,0.10491 q -1.04903,-0.0749 -2.8174,-0.0749 -2.33785,0 -2.68253,0.015 -0.1049,0.9741 -0.16485,3.34192 1.13895,-0.79427 2.53267,-0.79427 1.64848,0 2.74247,0.98909 1.10898,0.98909 1.10898,2.65255 0,1.31879 -0.7643,2.42777 -0.76429,1.10897 -1.93321,1.79834 -1.15394,0.68936 -2.86237,0.68936 -1.12396,0 -2.0531,-0.46457 z"
       style="font-size:30.6917px;line-height:0;font-family:'Palatino Linotype';-inkscape-font-specification:'Palatino Linotype';stroke-width:0.356874"
       id="path936" />
    <path
       d="m 176.54895,148.80037 -0.34468,1.04903 q -0.95911,0.82424 -2.45773,1.19889 -1.49862,0.37466 -2.90732,0.37466 -2.3828,0 -4.25608,-1.01906 -1.85828,-1.03405 -2.80241,-2.80242 -0.94413,-1.78335 -0.94413,-3.7915 0,-2.45774 1.19889,-4.13619 1.21388,-1.67845 2.92231,-2.44275 1.72341,-0.76429 4.19613,-0.76429 2.69751,0 5.17023,0.94413 l 0.0599,0.11989 q -0.26975,1.22886 -0.34469,3.67161 l -0.0749,0.0899 h -0.62942 l -0.0899,-0.0899 q -0.015,-1.19889 -0.16485,-1.72341 -0.13488,-0.52452 -0.73432,-1.06402 -0.58447,-0.5395 -1.48364,-0.80925 -0.88418,-0.26975 -1.96319,-0.26975 -2.36781,0 -3.88142,1.48363 -1.5136,1.46864 -1.5136,4.43591 0,2.00815 0.6444,3.61167 0.64441,1.60352 2.05311,2.53266 1.42369,0.91416 3.41685,0.91416 2.98225,0 4.58577,-1.8433 z"
       style="font-size:30.6917px;line-height:0;font-family:'Palatino Linotype';-inkscape-font-specification:'Palatino Linotype';stroke-width:0.356874"
       id="path938" />
    <path
       d="m 194.00785,143.24049 q 0,1.88826 -0.61443,3.40187 -0.59945,1.5136 -1.75338,2.60759 -1.13895,1.07901 -2.36782,1.52859 -1.21388,0.4346 -2.86236,0.4346 -3.6866,0 -5.61982,-2.11305 -1.91823,-2.11305 -1.91823,-5.27514 0,-2.17299 0.92914,-3.86643 0.92915,-1.69344 2.68253,-2.59261 1.76837,-0.89917 4.13618,-0.89917 2.30788,0 3.94137,0.8692 1.63349,0.85421 2.53267,2.42776 0.91415,1.55856 0.91415,3.47679 z m -2.89233,0.88419 q 0,-2.99724 -1.24385,-4.81057 -1.22887,-1.81333 -3.61167,-1.81333 -1.99317,0 -3.25201,1.40871 -1.25883,1.39371 -1.25883,4.2261 0,2.90732 1.25883,5.02037 1.27383,2.09807 3.65663,2.09807 2.08308,0 3.26699,-1.66347 1.18391,-1.67845 1.18391,-4.46588 z"
       style="font-size:30.6917px;line-height:0;font-family:'Palatino Linotype';-inkscape-font-specification:'Palatino Linotype';stroke-width:0.356874"
       id="path940" />
    <path
       d="m 196.10592,137.54574 v -0.62942 l 0.11989,-0.1049 q 1.48363,0.11989 3.22203,0.11989 1.81333,0 3.23702,-0.11989 l 0.11988,0.1049 v 0.62942 l -0.11988,0.11989 q -1.12397,0.10491 -1.37873,0.20981 -0.23978,0.0899 -0.38964,0.37465 -0.13488,0.28474 -0.17984,1.37873 -0.03,1.09399 -0.03,2.95228 v 2.65255 q 0,1.76837 0.31471,2.63757 0.31471,0.85421 1.16892,1.34876 0.85421,0.49454 2.35283,0.49454 1.28881,0 2.0681,-0.31471 0.77928,-0.32969 1.1839,-0.89917 0.41962,-0.58446 0.59945,-1.60352 0.19482,-1.03405 0.19482,-2.8174 l -0.03,-3.56671 q 0,-1.81333 -0.0749,-2.11305 -0.0599,-0.29973 -0.29973,-0.46458 -0.22479,-0.16484 -1.60352,-0.26975 l -0.1049,-0.11989 v -0.62942 l 0.1049,-0.1049 q 1.33377,0.11989 2.56264,0.11989 1.27383,0 2.63757,-0.11989 l 0.11989,0.1049 v 0.62942 l -0.11989,0.11989 q -1.3038,0.10491 -1.55857,0.25477 -0.25476,0.13487 -0.32969,0.44958 -0.06,0.29973 -0.0899,2.12804 l -0.0749,5.11029 q -0.03,1.81333 -0.38964,2.8174 -0.34468,0.98909 -1.13895,1.66347 -0.79427,0.67438 -1.76837,0.9741 -0.95911,0.31471 -2.47272,0.31471 -1.5136,0 -2.59261,-0.3297 -1.079,-0.31471 -1.76837,-0.89917 -0.68936,-0.58446 -1.04903,-1.54357 -0.34468,-0.95912 -0.34468,-2.56264 v -3.46181 q 0,-1.16892 -0.03,-2.6076 -0.03,-1.45366 -0.19482,-1.73839 -0.16484,-0.28474 -0.41961,-0.37466 -0.23978,-0.1049 -1.33377,-0.19482 z"
       style="font-size:30.6917px;line-height:0;font-family:'Palatino Linotype';-inkscape-font-specification:'Palatino Linotype';stroke-width:0.356874"
       id="path942" />
    <path
       d="m 213.99943,137.54574 v -0.62942 l 0.11989,-0.1049 q 0.98908,0.0899 2.12803,0.0899 0.97411,0 2.11306,-0.0899 0.67437,0.98909 3.91139,4.90048 3.252,3.89641 5.55987,6.3991 l -0.0899,-7.59799 q -0.03,-1.8433 -0.10491,-2.12804 -0.0599,-0.28474 -0.26975,-0.44959 -0.19482,-0.16484 -1.60352,-0.26975 l -0.11989,-0.11989 v -0.62942 l 0.11989,-0.1049 q 1.31878,0.11989 2.54765,0.11989 1.36374,0 2.65255,-0.11989 l 0.10491,0.1049 v 0.62942 l -0.10491,0.11989 q -1.25883,0.0899 -1.57354,0.20981 -0.29973,0.1049 -0.41962,0.44958 -0.1049,0.3297 -0.1049,2.18799 l -0.045,6.68383 q 0,2.23295 0.0599,3.88143 l -0.17984,0.17983 -1.97817,-0.44959 q -4.7806,-5.93452 -9.4413,-10.96988 l 0.045,7.3732 q 0.015,1.81333 0.0749,2.11305 0.0749,0.29973 0.29972,0.46457 0.23978,0.16485 1.60353,0.26975 l 0.11988,0.10491 v 0.62942 l -0.11988,0.11989 q -1.36375,-0.11989 -2.54766,-0.11989 -1.31878,0 -2.63756,0.11989 l -0.11989,-0.11989 v -0.62942 l 0.11989,-0.10491 q 1.12396,-0.0899 1.45366,-0.17983 0.32969,-0.0899 0.46457,-0.35967 0.14986,-0.28474 0.14986,-1.12396 0,-0.17984 0.015,-1.18391 l 0.0899,-6.3991 q 0,-1.69344 -0.015,-2.05311 -0.40463,-0.58446 -0.80926,-0.79426 -0.40462,-0.20981 -1.34875,-0.29973 z"
       style="font-size:30.6917px;line-height:0;font-family:'Palatino Linotype';-inkscape-font-specification:'Palatino Linotype';stroke-width:0.356874"
       id="path944" />
    <path
       d="m 246.999,148.80037 -0.34469,1.04903 q -0.95911,0.82424 -2.45773,1.19889 -1.49862,0.37466 -2.90732,0.37466 -2.3828,0 -4.25607,-1.01906 -1.85829,-1.03405 -2.80242,-2.80242 -0.94413,-1.78335 -0.94413,-3.7915 0,-2.45774 1.1989,-4.13619 1.21388,-1.67845 2.9223,-2.44275 1.72341,-0.76429 4.19613,-0.76429 2.69751,0 5.17023,0.94413 l 0.0599,0.11989 q -0.26975,1.22886 -0.34468,3.67161 l -0.0749,0.0899 h -0.62942 l -0.0899,-0.0899 q -0.015,-1.19889 -0.16485,-1.72341 -0.13487,-0.52452 -0.73432,-1.06402 -0.58446,-0.5395 -1.48363,-0.80925 -0.88419,-0.26975 -1.96319,-0.26975 -2.36782,0 -3.88142,1.48363 -1.51361,1.46864 -1.51361,4.43591 0,2.00815 0.64441,3.61167 0.6444,1.60352 2.0531,2.53266 1.42369,0.91416 3.41685,0.91416 2.98225,0 4.58577,-1.8433 z"
       style="font-size:30.6917px;line-height:0;font-family:'Palatino Linotype';-inkscape-font-specification:'Palatino Linotype';stroke-width:0.356874"
       id="path946" />
    <path
       d="m 249.50169,150.79353 v -0.62942 l 0.11989,-0.10491 q 1.12396,-0.1049 1.36374,-0.19482 0.23978,-0.1049 0.38964,-0.38964 0.16485,-0.28473 0.19482,-1.37873 0.03,-1.09399 0.03,-2.96726 v -2.54765 q 0,-1.16892 -0.03,-2.6076 -0.03,-1.45366 -0.19482,-1.73839 -0.16485,-0.28474 -0.41961,-0.37466 -0.23978,-0.1049 -1.33377,-0.19482 l -0.11989,-0.11989 v -0.62942 l 0.11989,-0.1049 q 1.48363,0.11989 3.22202,0.11989 1.81333,0 3.23702,-0.11989 l 0.11989,0.1049 v 0.62942 l -0.11989,0.11989 q -1.12396,0.10491 -1.37873,0.20981 -0.23978,0.0899 -0.38964,0.37465 -0.13488,0.28474 -0.17983,1.37873 -0.03,1.09399 -0.03,2.95228 v 2.54765 q 0,1.22887 0.03,2.65256 0.03,1.42368 0.17983,1.70842 0.16485,0.28474 0.41961,0.37465 0.25477,0.0899 1.34876,0.19482 l 0.11989,0.10491 v 0.62942 l -0.11989,0.11989 q -1.48363,-0.11989 -3.23702,-0.11989 -1.79834,0 -3.22202,0.11989 z"
       style="font-size:30.6917px;line-height:0;font-family:'Palatino Linotype';-inkscape-font-specification:'Palatino Linotype';stroke-width:0.356874"
       id="path948" />
    <path
       d="m 258.928,150.79353 v -0.62942 l 0.11989,-0.10491 q 1.12396,-0.1049 1.36374,-0.19482 0.23978,-0.1049 0.38964,-0.38964 0.16485,-0.28473 0.19482,-1.37873 0.03,-1.09399 0.03,-2.96726 v -2.54765 q 0,-1.16892 -0.03,-2.6076 -0.03,-1.45366 -0.19482,-1.73839 -0.16484,-0.28474 -0.41961,-0.37466 -0.23978,-0.1049 -1.33377,-0.19482 l -0.11989,-0.11989 v -0.62942 l 0.11989,-0.1049 q 1.48363,0.11989 3.22203,0.11989 1.81333,0 3.23701,-0.11989 l 0.11989,0.1049 v 0.62942 l -0.11989,0.11989 q -1.12396,0.10491 -1.37872,0.20981 -0.23978,0.0899 -0.38965,0.37465 -0.13487,0.28474 -0.17983,1.37873 -0.03,1.09399 -0.03,2.95228 v 2.54765 q 0,2.45773 0.045,4.64572 1.6185,0.015 1.78335,0.015 1.13895,0 2.53267,-0.0599 1.39371,-0.06 1.58853,-0.19482 0.19482,-0.14986 0.34468,-0.80926 l 0.41962,-1.76836 0.1049,-0.10491 h 0.62942 l 0.0899,0.0899 q -0.20981,1.81333 -0.3297,3.85145 l -0.1049,0.0899 q -5.41001,-0.0899 -5.58985,-0.0899 -3.55172,0 -5.99447,0.11989 z"
       style="font-size:30.6917px;line-height:0;font-family:'Palatino Linotype';-inkscape-font-specification:'Palatino Linotype';stroke-width:0.356874"
       id="path950" />
    <path
       d="m 60.767173,51.031951 h 2.225659 l 10.285246,23.672926 q 1.75355,4.046654 2.933825,5.226929 1.213996,1.180274 3.574544,1.517495 l 0.236055,0.236055 v 1.416329 l -0.236055,0.269777 q -5.058318,-0.269777 -7.688643,-0.269777 -2.259382,0 -7.756087,0.269777 l -0.202333,-0.269777 v -1.416329 l 0.236055,-0.236055 q 3.473378,-0.370943 3.97921,-0.741887 0.539554,-0.404665 0.539554,-0.977941 0,-0.505832 -0.809331,-2.630325 -0.775608,-2.124494 -1.787272,-4.012932 -2.697769,-0.06744 -6.676979,-0.06744 -3.102435,0 -6.272314,0.06744 -1.450051,3.372211 -1.888439,4.552486 -0.438387,1.146552 -0.438387,1.787272 0,0.876775 1.011663,1.382607 1.045386,0.505831 3.540823,0.64072 l 0.269777,0.236055 v 1.416329 l -0.202333,0.269777 q -3.473378,-0.269777 -6.103703,-0.269777 -2.765214,0 -6.137426,0.269777 l -0.202333,-0.269777 v -1.416329 l 0.269777,-0.236055 q 1.686106,0 2.630326,-0.573276 0.944219,-0.606998 2.158215,-2.596603 1.213996,-2.023327 2.326826,-4.485042 z M 65.488269,71.096611 59.856676,58.34965 54.19136,71.096611 q 2.191937,0.06744 5.530427,0.06744 3.473378,0 5.766482,-0.06744 z"
       style="font-size:69.0629px;line-height:1.25;font-family:'Palatino Linotype';-inkscape-font-specification:'Palatino Linotype, Normal';font-variant-caps:small-caps;stroke-width:0.359702"
       id="path50" />
    <path
       d="m 114.65512,78.616643 -0.77561,2.360548 q -2.15822,1.854717 -5.53043,2.69777 -3.37221,0.843053 -6.54209,0.843053 -5.361817,0 -9.577082,-2.293104 -4.181542,-2.326827 -6.306036,-6.306036 -2.124493,-4.012932 -2.124493,-8.531696 0,-5.530427 2.697769,-9.307305 2.731492,-3.776877 6.575813,-5.496705 3.878044,-1.719828 9.442189,-1.719828 6.06999,0 11.63413,2.124494 l 0.13489,0.269777 q -0.60699,2.765213 -0.77561,8.261918 l -0.16861,0.202333 h -1.41632 l -0.20234,-0.202333 q -0.0337,-2.697769 -0.37094,-3.878043 -0.3035,-1.180274 -1.65238,-2.394271 -1.31517,-1.213996 -3.33849,-1.820994 -1.98961,-0.606998 -4.4176,-0.606998 -5.328096,0 -8.73403,3.33849 -3.405934,3.304767 -3.405934,9.981746 0,4.518764 1.450051,8.127031 1.450051,3.608266 4.61993,5.699038 3.203601,2.057049 7.688643,2.057049 6.7107,0 10.31897,-4.147821 z"
       style="font-size:69.0629px;line-height:1.25;font-family:'Palatino Linotype';-inkscape-font-specification:'Palatino Linotype, Normal';font-variant-caps:small-caps;stroke-width:0.359702"
       id="path52" />
    <path
       d="m 153.94138,66.105737 q 0,4.248987 -1.3826,7.654921 -1.34889,3.405934 -3.94549,5.867648 -2.56288,2.427993 -5.3281,3.439656 -2.73149,0.977942 -6.44092,0.977942 -8.29564,0 -12.6458,-4.754819 -4.31643,-4.754818 -4.31643,-11.870185 0,-4.889707 2.09077,-8.700306 2.09078,-3.8106 6.03626,-5.833927 3.97921,-2.023327 9.30731,-2.023327 5.1932,0 8.86892,1.955883 3.67571,1.922161 5.69903,5.462983 2.05705,3.5071 2.05705,7.823531 z m -6.50837,1.989605 q 0,-6.744423 -2.79893,-10.824799 -2.76522,-4.080377 -8.12703,-4.080377 -4.48504,0 -7.3177,3.169879 -2.83266,3.136157 -2.83266,9.509638 0,6.54209 2.83266,11.296909 2.86638,4.721096 8.22819,4.721096 4.68738,0 7.35143,-3.743155 2.66404,-3.776877 2.66404,-10.049191 z"
       style="font-size:69.0629px;line-height:1.25;font-family:'Palatino Linotype';-inkscape-font-specification:'Palatino Linotype, Normal';font-variant-caps:small-caps;stroke-width:0.359702"
       id="path54" />
    <path
       d="m 158.86481,83.101685 v -1.416329 l 0.26978,-0.236055 q 2.52916,-0.236055 3.06871,-0.438388 0.53955,-0.236055 0.87678,-0.876775 0.37094,-0.64072 0.43838,-3.102435 0.0675,-2.461714 0.0675,-6.676979 v -5.73276 q 0,-2.630325 -0.0675,-5.867648 -0.0674,-3.271046 -0.43838,-3.911766 -0.37095,-0.64072 -0.94422,-0.843053 -0.53956,-0.236055 -3.00127,-0.438387 l -0.26978,-0.269777 v -1.416329 l 0.26978,-0.236055 q 4.61993,0.269777 7.0142,0.269777 1.14655,0 3.2036,-0.06744 5.90137,-0.168611 8.09331,-0.168611 3.87804,0 5.69904,1.719828 1.82099,1.719828 1.82099,4.316431 0,5.530427 -7.52003,7.553754 4.65365,0.269777 6.87931,2.326827 2.22566,2.023327 2.22566,5.294372 0,4.012932 -3.06871,7.216533 -3.03499,3.203601 -9.77942,3.203601 -0.47211,0 -1.9896,-0.06744 -2.79894,-0.134888 -4.45132,-0.134888 -4.08038,0.134888 -8.12703,0.269777 z M 168.914,64.858019 q 1.34889,0.06744 2.15822,0.06744 4.68737,0 6.54209,-1.517495 1.88844,-1.551217 1.88844,-4.248987 0,-2.360548 -1.5175,-3.878043 -1.48377,-1.551218 -5.29437,-1.551218 -1.68611,0 -3.54082,0.168611 z m 0,2.023327 0.23606,14.062123 q 1.6861,0.236055 3.70943,0.236055 2.93382,0 4.65365,-1.146552 1.75355,-1.146552 2.49544,-2.798936 0.74189,-1.652384 0.74189,-3.574544 0,-2.22566 -1.01167,-3.911766 -1.01166,-1.686106 -2.96754,-2.326826 -1.92216,-0.64072 -5.3281,-0.64072 -0.87677,0 -2.52916,0.101166 z"
       style="font-size:69.0629px;line-height:1.25;font-family:'Palatino Linotype';-inkscape-font-specification:'Palatino Linotype, Normal';font-variant-caps:small-caps;stroke-width:0.359702"
       id="path56" />
    <path
       style="color:#000000;-inkscape-font-specification:'Palatino Linotype';fill:#000000;stroke-width:1.75;-inkscape-stroke:none;paint-order:stroke markers fill"
       d="m 35.886453,50.826979 v 1.686108 l -0.236055,0.236055 q -2.36055,0.06744 -3.641991,0.202333 -1.247719,0.13489 -1.820995,0.505831 -0.573276,0.370945 -0.775609,1.753552 -0.168612,1.348885 -0.168612,3.776879 l -0.06744,7.756091 v 24.212493 q 0,5.328098 -0.944219,8.700311 -0.94422,3.405938 -3.30477,6.272318 -2.36055,2.9001 -4.889709,4.28271 -2.495438,1.41633 -4.957154,1.41633 -0.708166,0 -1.41633,-0.16861 0.06745,-1.34889 0.101161,-2.69777 0,-0.84305 -0.101161,-2.49544 l 0.64072,-0.43839 q 1.719829,1.28144 3.60827,1.28144 1.652383,0 2.697771,-0.64072 1.079107,-0.60699 1.517494,-1.6861 0.438388,-1.04539 0.539555,-3.87805 0.10116,-2.832658 0.10116,-4.855986 V 66.743828 l -0.06744,-6.575816 q -0.03373,-3.844325 -0.202332,-4.957154 -0.16861,-1.112831 -0.505832,-1.483774 -0.3035,-0.370944 -1.213997,-0.606999 -0.876776,-0.236055 -4.485044,-0.370943 l -0.236047,-0.236055 v -1.686108 l 0.236055,-0.236054 q 8.5317,0.269777 9.678253,0.269777 1.180275,0 9.678253,-0.269777 z"
       id="path1174" />
    <path
       id="rect68241"
       style="fill:#ff0000;stroke:none;stroke-width:5.13831;stroke-linecap:round;stroke-linejoin:round;paint-order:stroke markers fill"
       d="m 761.76953,14.933594 v 0.548828 l 0.0605,-0.119141 5.11523,10.066407 c 3.42936,6.746365 5.27935,10.17246 5.60938,10.388671 0.96056,0.629424 1.58052,0.390905 6.79687,-2.609375 2.76858,-1.592394 5.05502,-2.869068 5.08008,-2.83789 0.0265,0.03099 -1.32372,7.083748 -2.99805,15.673828 -1.67444,8.59008 -3.04913,15.971749 -3.05468,16.404297 -0.0189,1.53301 1.78061,2.541747 3.00586,1.683593 0.23962,-0.167886 3.27918,-3.363289 6.75585,-7.099609 3.47664,-3.73632 6.39465,-6.718636 6.48438,-6.628906 0.09,0.08976 0.82605,1.734965 1.63672,3.65625 1.69844,4.025371 2.14015,4.628964 3.36328,4.609375 0.45933,-0.0072 4.39453,-0.777412 8.74609,-1.712891 4.3516,-0.935486 7.92978,-1.690713 7.95118,-1.677734 0.0189,0.01323 -1.24861,3.982785 -2.82422,8.822265 -1.57557,4.839478 -2.86569,8.95301 -2.86524,9.140626 4.2e-4,0.187653 0.1729,0.61795 0.38281,0.957031 0.30048,0.484433 1.09405,0.945214 3.70313,2.146484 1.82623,0.840862 3.29417,1.592516 3.26367,1.671875 -0.034,0.07937 -6.25137,5.156375 -13.82422,11.28125 -7.57281,6.124879 -14.08663,11.449332 -14.47656,11.832032 -0.5311,0.52137 -0.70681,0.86356 -0.69922,1.36914 0.004,0.37107 0.79969,2.84972 1.76563,5.50586 0.96582,2.65615 1.74289,4.84309 1.72656,4.86133 -0.0151,0.0181 -5.76375,-0.97934 -12.77149,-2.2168 -7.00765,-1.23746 -13.1351,-2.25453 -13.61718,-2.25977 -1.13688,-0.0125 -2.05979,0.5401 -2.58008,1.54297 l -0.41406,0.79688 0.61523,11.85937 H 995.12305 V 14.933594 Z"
       transform="matrix(0.26458333,0,0,0.26458333,2.695851,49.902177)" />
  </g>
</svg>
